<svg width="355" height="300" viewBox="0 0 355 300" fill="none" xmlns="http://www.w3.org/2000/svg">
<g clip-path="url(#clip0_4_3)">
<g style="mix-blend-mode:multiply">
<path d="M218.128 8.30889C218.128 8.30889 164.092 -12.7599 112.843 33.1792C61.5945 79.1158 69.2914 144.121 69.2914 144.121C69.2914 144.121 11.7758 155.935 2.5601 217.23C-6.65557 278.522 11.9724 299.221 11.9724 299.221L333.01 300.002C333.01 300.002 383.02 131.082 330.614 51.4955C278.21 -28.0934 218.128 8.30889 218.128 8.30889Z" fill="#C7AFC9"/>
</g>
<path d="M78.4136 226.585H79.0845V208.637H78.4136V226.585Z" fill="#8F8FB7"/>
<path d="M71.8619 232.882H85.6387V220.286H71.8619V232.882Z" fill="#8F8FB7"/>
<path d="M68.4999 294.598H88.998L88.998 225.534H68.4999V294.598Z" fill="#8F8FB7"/>
<path d="M87.1453 226.98H84.4568V229.499H87.1453V226.98Z" fill="#D3D875"/>
<path d="M82.6675 226.98H79.979V229.499H82.6675V226.98Z" fill="#D3D875"/>
<path d="M78.19 226.98H75.5015V229.499H78.19V226.98Z" fill="#D3D875"/>
<path d="M73.7124 226.98H71.0239V229.499H73.7124V226.98Z" fill="#D3D875"/>
<path d="M87.1453 232.252H84.4568V234.772H87.1453V232.252Z" fill="#D3D875"/>
<path d="M82.6675 232.252H79.979V234.772H82.6675V232.252Z" fill="#D3D875"/>
<path d="M78.19 232.252H75.5015V234.772H78.19V232.252Z" fill="#D3D875"/>
<path d="M73.7124 232.252H71.0239V234.772H73.7124V232.252Z" fill="#D3D875"/>
<path d="M87.1453 237.526H84.4568V240.046H87.1453V237.526Z" fill="#D3D875"/>
<path d="M82.6675 237.526H79.979V240.046H82.6675V237.526Z" fill="#D3D875"/>
<path d="M78.19 237.526H75.5015V240.046H78.19V237.526Z" fill="#D3D875"/>
<path d="M73.7124 237.526H71.0239V240.046H73.7124V237.526Z" fill="#D3D875"/>
<path d="M87.1453 242.801H84.4568V245.321H87.1453V242.801Z" fill="#D3D875"/>
<path d="M82.6675 242.801H79.979V245.321H82.6675V242.801Z" fill="#D3D875"/>
<path d="M78.19 242.801H75.5015V245.321H78.19V242.801Z" fill="#D3D875"/>
<path d="M73.7124 242.801H71.0239V245.321H73.7124V242.801Z" fill="#D3D875"/>
<path d="M87.1453 248.076H84.4568V250.595H87.1453V248.076Z" fill="#D3D875"/>
<path d="M82.6675 248.076H79.979V250.595H82.6675V248.076Z" fill="#D3D875"/>
<path d="M78.19 248.076H75.5015V250.595H78.19V248.076Z" fill="#D3D875"/>
<path d="M73.7124 248.076H71.0239V250.595H73.7124V248.076Z" fill="#D3D875"/>
<path d="M87.1453 253.35H84.4568V255.87H87.1453V253.35Z" fill="#D3D875"/>
<path d="M82.6675 253.35H79.979V255.87H82.6675V253.35Z" fill="#D3D875"/>
<path d="M78.19 253.35H75.5015V255.87H78.19V253.35Z" fill="#D3D875"/>
<path d="M73.7124 253.35H71.0239V255.87H73.7124V253.35Z" fill="#D3D875"/>
<path d="M87.1453 258.622H84.4568V261.142H87.1453V258.622Z" fill="#D3D875"/>
<path d="M82.6675 258.622H79.979V261.142H82.6675V258.622Z" fill="#D3D875"/>
<path d="M78.19 258.622H75.5015V261.142H78.19V258.622Z" fill="#D3D875"/>
<path d="M73.7124 258.622H71.0239V261.142H73.7124V258.622Z" fill="#D3D875"/>
<path d="M87.1453 263.897H84.4568V266.416H87.1453V263.897Z" fill="#D3D875"/>
<path d="M82.6675 263.897H79.979V266.416H82.6675V263.897Z" fill="#D3D875"/>
<path d="M78.19 263.897H75.5015V266.416H78.19V263.897Z" fill="#D3D875"/>
<path d="M73.7124 263.897H71.0239V266.416H73.7124V263.897Z" fill="#D3D875"/>
<path d="M87.1453 269.171H84.4568V271.691H87.1453V269.171Z" fill="#D3D875"/>
<path d="M82.6675 269.171H79.979V271.691H82.6675V269.171Z" fill="#D3D875"/>
<path d="M78.19 269.171H75.5015V271.691H78.19V269.171Z" fill="#D3D875"/>
<path d="M73.7124 269.171H71.0239V271.691H73.7124V269.171Z" fill="#D3D875"/>
<path d="M87.1453 274.446H84.4568V276.966H87.1453V274.446Z" fill="#D3D875"/>
<path d="M82.6675 274.446H79.979V276.966H82.6675V274.446Z" fill="#D3D875"/>
<path d="M78.19 274.446H75.5015V276.966H78.19V274.446Z" fill="#D3D875"/>
<path d="M73.7124 274.446H71.0239V276.966H73.7124V274.446Z" fill="#D3D875"/>
<path d="M87.1453 279.718H84.4568V282.238H87.1453V279.718Z" fill="#D3D875"/>
<path d="M82.6675 279.718H79.979V282.238H82.6675V279.718Z" fill="#D3D875"/>
<path d="M78.19 279.718H75.5015V282.238H78.19V279.718Z" fill="#D3D875"/>
<path d="M73.7124 279.718H71.0239V282.238H73.7124V279.718Z" fill="#D3D875"/>
<path d="M87.1453 284.993H84.4568V287.512H87.1453V284.993Z" fill="#D3D875"/>
<path d="M82.6675 284.993H79.979V287.512H82.6675V284.993Z" fill="#D3D875"/>
<path d="M78.19 284.993H75.5015V287.512H78.19V284.993Z" fill="#D3D875"/>
<path d="M73.7124 284.993H71.0239V287.512H73.7124V284.993Z" fill="#D3D875"/>
<path d="M87.1453 290.267H84.4568V292.787H87.1453V290.267Z" fill="#D3D875"/>
<path d="M82.6675 290.267H79.979V292.787H82.6675V290.267Z" fill="#D3D875"/>
<path d="M78.19 290.267H75.5015V292.787H78.19V290.267Z" fill="#D3D875"/>
<path d="M73.7124 290.267H71.0239V292.787H73.7124V290.267Z" fill="#D3D875"/>
<path d="M69.6746 294.206H47.294L47.294 200.426C47.294 194.274 52.3024 189.281 58.4683 189.281H69.6746L69.6746 294.206Z" fill="#B1B1DE"/>
<path d="M67.657 202.59H64.6318V213.171H67.657V202.59Z" fill="#C1C685"/>
<path d="M63.681 202.59H60.6558V213.171H63.681V202.59Z" fill="#C1C685"/>
<path d="M59.7046 202.59H56.6794V213.171H59.7046V202.59Z" fill="#C1C685"/>
<path d="M55.7283 202.59H52.7031V213.171H55.7283V202.59Z" fill="#C1C685"/>
<path d="M67.657 215.835H64.6318V226.416H67.657V215.835Z" fill="#C1C685"/>
<path d="M63.6807 215.835H60.6555V226.416H63.6807V215.835Z" fill="#C1C685"/>
<path d="M59.7046 215.835H56.6794V226.416H59.7046V215.835Z" fill="#C1C685"/>
<path d="M55.7283 215.835H52.7031V226.416H55.7283V215.835Z" fill="#C1C685"/>
<path d="M67.657 229.083H64.6318V239.664H67.657V229.083Z" fill="#C1C685"/>
<path d="M63.6807 229.083H60.6555V239.664H63.6807V229.083Z" fill="#C1C685"/>
<path d="M59.7046 229.083H56.6794V239.664H59.7046V229.083Z" fill="#C1C685"/>
<path d="M55.7283 229.083H52.7031V239.664H55.7283V229.083Z" fill="#C1C685"/>
<path d="M67.657 242.328H64.6318V252.909H67.657V242.328Z" fill="#C1C685"/>
<path d="M63.6807 242.328H60.6555V252.909H63.6807V242.328Z" fill="#C1C685"/>
<path d="M59.7046 242.328H56.6794V252.909H59.7046V242.328Z" fill="#C1C685"/>
<path d="M55.7283 242.328H52.7031V252.909H55.7283V242.328Z" fill="#C1C685"/>
<path d="M67.657 255.573H64.6318V266.154H67.657V255.573Z" fill="#C1C685"/>
<path d="M63.6807 255.573H60.6555V266.154H63.6807V255.573Z" fill="#C1C685"/>
<path d="M59.7046 255.573H56.6794V266.154H59.7046V255.573Z" fill="#C1C685"/>
<path d="M55.7283 255.573H52.7031V266.154H55.7283V255.573Z" fill="#C1C685"/>
<path d="M67.657 268.818H64.6318V279.399H67.657V268.818Z" fill="#C1C685"/>
<path d="M63.6807 268.818H60.6555V279.399H63.6807V268.818Z" fill="#C1C685"/>
<path d="M59.7046 268.818H56.6794V279.399H59.7046V268.818Z" fill="#C1C685"/>
<path d="M55.7283 268.818H52.7031V279.399H55.7283V268.818Z" fill="#C1C685"/>
<path d="M67.657 282.064H64.6318V292.645H67.657V282.064Z" fill="#C1C685"/>
<path d="M63.6807 282.064H60.6555V292.645H63.6807V282.064Z" fill="#C1C685"/>
<path d="M59.7046 282.064H56.6794V292.645H59.7046V282.064Z" fill="#C1C685"/>
<path d="M55.7283 282.064H52.7031V292.645H55.7283V282.064Z" fill="#C1C685"/>
<path d="M31.6495 242.821H44.1829V232.254H31.6495V242.821Z" fill="#8F8FB7"/>
<path d="M28.5948 294.598H47.24L47.24 236.654H28.5948L28.5948 294.598Z" fill="#8F8FB7"/>
<path d="M45.5541 237.867H43.1089V239.98H45.5541V237.867Z" fill="#D3D875"/>
<path d="M41.4821 237.867H39.0369V239.98H41.4821V237.867Z" fill="#D3D875"/>
<path d="M37.4074 237.867H34.9622V239.98H37.4074V237.867Z" fill="#D3D875"/>
<path d="M33.3354 237.867H30.8901V239.98H33.3354V237.867Z" fill="#D3D875"/>
<path d="M45.5541 242.291H43.1089V244.404H45.5541V242.291Z" fill="#D3D875"/>
<path d="M41.4821 242.291H39.0369V244.404H41.4821V242.291Z" fill="#D3D875"/>
<path d="M37.4074 242.291H34.9622V244.404H37.4074V242.291Z" fill="#D3D875"/>
<path d="M33.3354 242.291H30.8901V244.404H33.3354V242.291Z" fill="#D3D875"/>
<path d="M45.5541 246.718H43.1089V248.83H45.5541V246.718Z" fill="#D3D875"/>
<path d="M41.4821 246.718H39.0369V248.83H41.4821V246.718Z" fill="#D3D875"/>
<path d="M37.4074 246.718H34.9622V248.83H37.4074V246.718Z" fill="#D3D875"/>
<path d="M33.3354 246.718H30.8901V248.83H33.3354V246.718Z" fill="#D3D875"/>
<path d="M45.5541 251.142H43.1089V253.255H45.5541V251.142Z" fill="#D3D875"/>
<path d="M41.4821 251.142H39.0369V253.255H41.4821V251.142Z" fill="#D3D875"/>
<path d="M37.4074 251.142H34.9622V253.255H37.4074V251.142Z" fill="#D3D875"/>
<path d="M33.3354 251.142H30.8901V253.255H33.3354V251.142Z" fill="#D3D875"/>
<path d="M45.5541 255.566H43.1089V257.679H45.5541V255.566Z" fill="#D3D875"/>
<path d="M41.4821 255.566H39.0369V257.679H41.4821V255.566Z" fill="#D3D875"/>
<path d="M37.4074 255.566H34.9622V257.679H37.4074V255.566Z" fill="#D3D875"/>
<path d="M33.3354 255.566H30.8901V257.679H33.3354V255.566Z" fill="#D3D875"/>
<path d="M45.5541 259.99H43.1089V262.103H45.5541V259.99Z" fill="#D3D875"/>
<path d="M41.4821 259.99H39.0369V262.103H41.4821V259.99Z" fill="#D3D875"/>
<path d="M37.4074 259.99H34.9622V262.103H37.4074V259.99Z" fill="#D3D875"/>
<path d="M33.3354 259.99H30.8901V262.103H33.3354V259.99Z" fill="#D3D875"/>
<path d="M45.5541 264.416H43.1089V266.529H45.5541V264.416Z" fill="#D3D875"/>
<path d="M41.4821 264.416H39.0369V266.529H41.4821V264.416Z" fill="#D3D875"/>
<path d="M37.4074 264.416H34.9622V266.529H37.4074V264.416Z" fill="#D3D875"/>
<path d="M33.3354 264.416H30.8901V266.529H33.3354V264.416Z" fill="#D3D875"/>
<path d="M45.5541 268.84H43.1089V270.953H45.5541V268.84Z" fill="#D3D875"/>
<path d="M41.4821 268.84H39.0369V270.953H41.4821V268.84Z" fill="#D3D875"/>
<path d="M37.4074 268.84H34.9622V270.953H37.4074V268.84Z" fill="#D3D875"/>
<path d="M33.3354 268.84H30.8901V270.953H33.3354V268.84Z" fill="#D3D875"/>
<path d="M45.5541 273.265H43.1089V275.377H45.5541V273.265Z" fill="#D3D875"/>
<path d="M41.4821 273.265H39.0369V275.377H41.4821V273.265Z" fill="#D3D875"/>
<path d="M37.4074 273.265H34.9622V275.377H37.4074V273.265Z" fill="#D3D875"/>
<path d="M33.3354 273.265H30.8901V275.377H33.3354V273.265Z" fill="#D3D875"/>
<path d="M45.5541 277.691H43.1089V279.804H45.5541V277.691Z" fill="#D3D875"/>
<path d="M41.4821 277.691H39.0369V279.804H41.4821V277.691Z" fill="#D3D875"/>
<path d="M37.4074 277.691H34.9622V279.804H37.4074V277.691Z" fill="#D3D875"/>
<path d="M33.3354 277.691H30.8901V279.804H33.3354V277.691Z" fill="#D3D875"/>
<path d="M45.5541 282.115H43.1089V284.228H45.5541V282.115Z" fill="#D3D875"/>
<path d="M41.4821 282.115H39.0369V284.228H41.4821V282.115Z" fill="#D3D875"/>
<path d="M37.4074 282.115H34.9622V284.228H37.4074V282.115Z" fill="#D3D875"/>
<path d="M33.3354 282.115H30.8901V284.228H33.3354V282.115Z" fill="#D3D875"/>
<path d="M45.5541 286.539H43.1089V288.652H45.5541V286.539Z" fill="#D3D875"/>
<path d="M41.4821 286.539H39.0369V288.652H41.4821V286.539Z" fill="#D3D875"/>
<path d="M37.4074 286.539H34.9622V288.652H37.4074V286.539Z" fill="#D3D875"/>
<path d="M33.3354 286.539H30.8901V288.652H33.3354V286.539Z" fill="#D3D875"/>
<path d="M45.5541 290.963H43.1089V293.076H45.5541V290.963Z" fill="#D3D875"/>
<path d="M41.4821 290.963H39.0369V293.076H41.4821V290.963Z" fill="#D3D875"/>
<path d="M37.4074 290.963H34.9622V293.076H37.4074V290.963Z" fill="#D3D875"/>
<path d="M33.3354 290.963H30.8901V293.076H33.3354V290.963Z" fill="#D3D875"/>
<path d="M8.458 294.598H29.6172L29.6172 271.902H8.458L8.458 294.598Z" fill="#8282A8"/>
<path d="M11.5322 271.902H26.5403V261.921H11.5322L11.5322 271.902Z" fill="#8282A8"/>
<path d="M12.5916 261.921H25.4763V256.598H12.5916V261.921Z" fill="#8282A8"/>
<path d="M11.2349 256.595H26.8401V255.264H11.2349V256.595Z" fill="#8282A8"/>
<path d="M13.54 255.649H24.53V252.732H13.54V255.649Z" fill="#8282A8"/>
<path d="M21.3575 255.384C21.4288 255.384 21.4828 255.331 21.4828 255.267V237.656C21.4828 237.59 21.4263 237.539 21.3575 237.539C21.2887 237.539 21.2322 237.593 21.2322 237.656V255.267C21.2322 255.333 21.2887 255.384 21.3575 255.384Z" fill="#B1B1DE"/>
<path d="M10.7778 294.598H31.937L31.937 271.902H10.7778L10.7778 294.598Z" fill="#B1B1DE"/>
<path d="M13.8548 271.902H28.8628V261.921H13.8548L13.8548 271.902Z" fill="#B1B1DE"/>
<path d="M14.9163 261.921H27.801V256.598H14.9163V261.921Z" fill="#B1B1DE"/>
<path d="M13.5549 256.595H29.1602V255.264H13.5549V256.595Z" fill="#B1B1DE"/>
<path d="M15.8625 255.649H26.8525V252.732H15.8625V255.649Z" fill="#B1B1DE"/>
<path d="M24.9972 259.122H26.511V257.12H24.9972V259.122Z" fill="#C1C685"/>
<path d="M24.9972 261.745H26.511V259.742H24.9972V261.745Z" fill="#C1C685"/>
<path d="M24.3163 257.12H22.8025V259.122H24.3163V257.12Z" fill="#C1C685"/>
<path d="M24.3163 259.745H22.8025V261.747H24.3163V259.745Z" fill="#C1C685"/>
<path d="M22.1217 257.12H20.6079V259.122H22.1217V257.12Z" fill="#C1C685"/>
<path d="M22.1217 259.745H20.6079V261.747H22.1217V259.745Z" fill="#C1C685"/>
<path d="M19.9247 257.12H18.4109V259.122H19.9247V257.12Z" fill="#C1C685"/>
<path d="M19.9247 259.745H18.4109V261.747H19.9247V259.745Z" fill="#C1C685"/>
<path d="M16.2188 259.122H17.7327V257.12H16.2188V259.122Z" fill="#C1C685"/>
<path d="M16.2188 261.745H17.7327V259.742H16.2188V261.745Z" fill="#C1C685"/>
<path d="M24.8646 264.549H26.3784V262.549H24.8646V264.549Z" fill="#C1C685"/>
<path d="M24.8646 267.171H26.3784V265.169H24.8646V267.171Z" fill="#C1C685"/>
<path d="M24.1838 262.546H22.6699V264.546H24.1838V262.546Z" fill="#C1C685"/>
<path d="M24.1838 265.171H22.6699V267.174H24.1838V265.171Z" fill="#C1C685"/>
<path d="M21.9892 262.546H20.4753V264.546H21.9892V262.546Z" fill="#C1C685"/>
<path d="M21.9892 265.171H20.4753V267.174H21.9892V265.171Z" fill="#C1C685"/>
<path d="M19.7921 262.546H18.2783V264.546H19.7921V262.546Z" fill="#C1C685"/>
<path d="M19.7921 265.171H18.2783V267.174H19.7921V265.171Z" fill="#C1C685"/>
<path d="M16.0838 264.549H17.5977V262.549H16.0838V264.549Z" fill="#C1C685"/>
<path d="M16.0838 267.171H17.5977V265.169H16.0838V267.171Z" fill="#C1C685"/>
<path d="M24.8646 269.738H26.3784V267.735H24.8646V269.738Z" fill="#C1C685"/>
<path d="M24.8646 272.36H26.3784V270.358H24.8646V272.36Z" fill="#C1C685"/>
<path d="M24.1838 267.735H22.6699V269.738H24.1838V267.735Z" fill="#C1C685"/>
<path d="M24.1838 270.36H22.6699V272.363H24.1838V270.36Z" fill="#C1C685"/>
<path d="M21.9892 267.735H20.4753V269.738H21.9892V267.735Z" fill="#C1C685"/>
<path d="M21.9892 270.36H20.4753V272.363H21.9892V270.36Z" fill="#C1C685"/>
<path d="M19.7921 267.735H18.2783V269.738H19.7921V267.735Z" fill="#C1C685"/>
<path d="M19.7921 270.36H18.2783V272.363H19.7921V270.36Z" fill="#C1C685"/>
<path d="M16.0838 269.738H17.5977V267.735H16.0838V269.738Z" fill="#C1C685"/>
<path d="M16.0838 272.36H17.5977V270.358H16.0838V272.36Z" fill="#C1C685"/>
<path d="M26.3783 273.294H24.8645V275.296H26.3783V273.294Z" fill="#C1C685"/>
<path d="M26.3783 275.919H24.8645V277.921H26.3783V275.919Z" fill="#C1C685"/>
<path d="M24.1838 273.294H22.6699V275.296H24.1838V273.294Z" fill="#C1C685"/>
<path d="M24.1838 275.919H22.6699V277.921H24.1838V275.919Z" fill="#C1C685"/>
<path d="M21.9892 273.294H20.4753V275.296H21.9892V273.294Z" fill="#C1C685"/>
<path d="M21.9892 275.919H20.4753V277.921H21.9892V275.919Z" fill="#C1C685"/>
<path d="M19.7921 273.294H18.2783V275.296H19.7921V273.294Z" fill="#C1C685"/>
<path d="M19.7921 275.919H18.2783V277.921H19.7921V275.919Z" fill="#C1C685"/>
<path d="M17.5976 273.294H16.0837V275.296H17.5976V273.294Z" fill="#C1C685"/>
<path d="M17.5976 275.919H16.0837V277.921H17.5976V275.919Z" fill="#C1C685"/>
<path d="M26.3783 278.855H24.8645V280.858H26.3783V278.855Z" fill="#C1C685"/>
<path d="M26.3783 281.478H24.8645V283.48H26.3783V281.478Z" fill="#C1C685"/>
<path d="M24.1838 278.855H22.6699V280.858H24.1838V278.855Z" fill="#C1C685"/>
<path d="M24.1838 281.478H22.6699V283.48H24.1838V281.478Z" fill="#C1C685"/>
<path d="M21.9892 278.855H20.4753V280.858H21.9892V278.855Z" fill="#C1C685"/>
<path d="M21.9892 281.478H20.4753V283.48H21.9892V281.478Z" fill="#C1C685"/>
<path d="M19.7921 278.855H18.2783V280.858H19.7921V278.855Z" fill="#C1C685"/>
<path d="M19.7921 281.478H18.2783V283.48H19.7921V281.478Z" fill="#C1C685"/>
<path d="M17.5976 278.855H16.0837V280.858H17.5976V278.855Z" fill="#C1C685"/>
<path d="M17.5976 281.478H16.0837V283.48H17.5976V281.478Z" fill="#C1C685"/>
<path d="M26.3783 284.414H24.8645V286.417H26.3783V284.414Z" fill="#C1C685"/>
<path d="M26.3783 287.039H24.8645V289.042H26.3783V287.039Z" fill="#C1C685"/>
<path d="M24.1838 284.414H22.6699V286.417H24.1838V284.414Z" fill="#C1C685"/>
<path d="M24.1838 287.039H22.6699V289.042H24.1838V287.039Z" fill="#C1C685"/>
<path d="M21.9892 284.414H20.4753V286.417H21.9892V284.414Z" fill="#C1C685"/>
<path d="M21.9892 287.039H20.4753V289.042H21.9892V287.039Z" fill="#C1C685"/>
<path d="M19.7921 284.414H18.2783V286.417H19.7921V284.414Z" fill="#C1C685"/>
<path d="M19.7921 287.039H18.2783V289.042H19.7921V287.039Z" fill="#C1C685"/>
<path d="M17.5976 284.414H16.0837V286.417H17.5976V284.414Z" fill="#C1C685"/>
<path d="M17.5976 287.039H16.0837V289.042H17.5976V287.039Z" fill="#C1C685"/>
<path d="M24.8646 291.975H26.3784V289.973H24.8646V291.975Z" fill="#C1C685"/>
<path d="M24.8646 294.598H26.3784V292.596H24.8646V294.598Z" fill="#C1C685"/>
<path d="M24.1838 289.973H22.6699V291.975H24.1838V289.973Z" fill="#C1C685"/>
<path d="M24.1838 292.598H22.6699V294.6H24.1838V292.598Z" fill="#C1C685"/>
<path d="M21.9892 289.973H20.4753V291.975H21.9892V289.973Z" fill="#C1C685"/>
<path d="M21.9892 292.598H20.4753V294.6H21.9892V292.598Z" fill="#C1C685"/>
<path d="M19.7921 289.973H18.2783V291.975H19.7921V289.973Z" fill="#C1C685"/>
<path d="M19.7921 292.598H18.2783V294.6H19.7921V292.598Z" fill="#C1C685"/>
<path d="M16.0838 291.975H17.5977V289.973H16.0838V291.975Z" fill="#C1C685"/>
<path d="M16.0838 294.598H17.5977V292.596H16.0838V294.598Z" fill="#C1C685"/>
<path d="M303.829 190.524H303.025V212.673H303.829V190.524Z" fill="#6C6C8C"/>
<path d="M311.673 204.901H295.181V220.445H311.673V204.901Z" fill="#6C6C8C"/>
<path d="M316.365 210.617H291.826V295.85H316.365V210.617Z" fill="#6C6C8C"/>
<path d="M297.26 212.399H294.043V215.507H297.26V212.399Z" fill="#C1C685"/>
<path d="M302.622 212.399H299.406V215.507H302.622V212.399Z" fill="#C1C685"/>
<path d="M307.982 212.399H304.765V215.507H307.982V212.399Z" fill="#C1C685"/>
<path d="M313.342 212.399H310.125V215.507H313.342V212.399Z" fill="#C1C685"/>
<path d="M297.26 218.906H294.043V222.014H297.26V218.906Z" fill="#C1C685"/>
<path d="M302.622 218.906H299.406V222.014H302.622V218.906Z" fill="#C1C685"/>
<path d="M307.982 218.906H304.765V222.014H307.982V218.906Z" fill="#C1C685"/>
<path d="M313.342 218.906H310.125V222.014H313.342V218.906Z" fill="#C1C685"/>
<path d="M297.26 225.416H294.043V228.524H297.26V225.416Z" fill="#C1C685"/>
<path d="M302.622 225.416H299.406V228.524H302.622V225.416Z" fill="#C1C685"/>
<path d="M307.982 225.416H304.765V228.524H307.982V225.416Z" fill="#C1C685"/>
<path d="M313.342 225.416H310.125V228.524H313.342V225.416Z" fill="#C1C685"/>
<path d="M297.26 231.923H294.043V235.031H297.26V231.923Z" fill="#C1C685"/>
<path d="M302.622 231.923H299.406V235.031H302.622V231.923Z" fill="#C1C685"/>
<path d="M307.982 231.923H304.765V235.031H307.982V231.923Z" fill="#C1C685"/>
<path d="M313.342 231.923H310.125V235.031H313.342V231.923Z" fill="#C1C685"/>
<path d="M297.26 238.433H294.043V241.541H297.26V238.433Z" fill="#C1C685"/>
<path d="M302.622 238.433H299.406V241.541H302.622V238.433Z" fill="#C1C685"/>
<path d="M307.982 238.433H304.765V241.541H307.982V238.433Z" fill="#C1C685"/>
<path d="M313.342 238.433H310.125V241.541H313.342V238.433Z" fill="#C1C685"/>
<path d="M297.26 244.941H294.043V248.049H297.26V244.941Z" fill="#C1C685"/>
<path d="M302.622 244.941H299.406V248.049H302.622V244.941Z" fill="#C1C685"/>
<path d="M307.982 244.941H304.765V248.049H307.982V244.941Z" fill="#C1C685"/>
<path d="M313.342 244.941H310.125V248.049H313.342V244.941Z" fill="#C1C685"/>
<path d="M297.26 251.451H294.043V254.558H297.26V251.451Z" fill="#C1C685"/>
<path d="M302.622 251.451H299.406V254.558H302.622V251.451Z" fill="#C1C685"/>
<path d="M307.982 251.451H304.765V254.558H307.982V251.451Z" fill="#C1C685"/>
<path d="M313.342 251.451H310.125V254.558H313.342V251.451Z" fill="#C1C685"/>
<path d="M297.26 257.96H294.043V261.068H297.26V257.96Z" fill="#C1C685"/>
<path d="M302.622 257.96H299.406V261.068H302.622V257.96Z" fill="#C1C685"/>
<path d="M307.982 257.96H304.765V261.068H307.982V257.96Z" fill="#C1C685"/>
<path d="M313.342 257.96H310.125V261.068H313.342V257.96Z" fill="#C1C685"/>
<path d="M297.26 264.468H294.043V267.576H297.26V264.468Z" fill="#C1C685"/>
<path d="M302.622 264.468H299.406V267.576H302.622V264.468Z" fill="#C1C685"/>
<path d="M307.982 264.468H304.765V267.576H307.982V264.468Z" fill="#C1C685"/>
<path d="M313.342 264.468H310.125V267.576H313.342V264.468Z" fill="#C1C685"/>
<path d="M297.26 270.978H294.043V274.086H297.26V270.978Z" fill="#C1C685"/>
<path d="M302.622 270.978H299.406V274.086H302.622V270.978Z" fill="#C1C685"/>
<path d="M307.982 270.978H304.765V274.086H307.982V270.978Z" fill="#C1C685"/>
<path d="M313.342 270.978H310.125V274.086H313.342V270.978Z" fill="#C1C685"/>
<path d="M297.26 277.485H294.043V280.595H297.26V277.485Z" fill="#C1C685"/>
<path d="M302.622 277.485H299.406V280.595H302.622V277.485Z" fill="#C1C685"/>
<path d="M307.982 277.485H304.765V280.595H307.982V277.485Z" fill="#C1C685"/>
<path d="M313.342 277.485H310.125V280.595H313.342V277.485Z" fill="#C1C685"/>
<path d="M297.26 283.995H294.043V287.105H297.26V283.995Z" fill="#C1C685"/>
<path d="M302.622 283.995H299.406V287.105H302.622V283.995Z" fill="#C1C685"/>
<path d="M307.982 283.995H304.765V287.105H307.982V283.995Z" fill="#C1C685"/>
<path d="M313.342 283.995H310.125V287.105H313.342V283.995Z" fill="#C1C685"/>
<path d="M297.26 290.502H294.043V293.613H297.26V290.502Z" fill="#C1C685"/>
<path d="M302.622 290.502H299.406V293.613H302.622V290.502Z" fill="#C1C685"/>
<path d="M307.982 290.502H304.765V293.613H307.982V290.502Z" fill="#C1C685"/>
<path d="M313.342 290.502H310.125V293.613H313.342V290.502Z" fill="#C1C685"/>
<path d="M336.01 295.85H314.546V237.632H325.893C331.476 237.632 336.01 242.154 336.01 247.723V295.85Z" fill="#B1B1DE"/>
<path d="M320.115 246.99H317.014V252.203H320.115V246.99Z" fill="#D3D875"/>
<path d="M324.192 246.99H321.091V252.203H324.192V246.99Z" fill="#D3D875"/>
<path d="M328.269 246.99H325.168V252.203H328.269V246.99Z" fill="#D3D875"/>
<path d="M332.346 246.99H329.245V252.203H332.346V246.99Z" fill="#D3D875"/>
<path d="M320.115 253.514H317.014V258.728H320.115V253.514Z" fill="#D3D875"/>
<path d="M324.192 253.514H321.091V258.728H324.192V253.514Z" fill="#D3D875"/>
<path d="M328.269 253.514H325.168V258.728H328.269V253.514Z" fill="#D3D875"/>
<path d="M332.346 253.514H329.245V258.728H332.346V253.514Z" fill="#D3D875"/>
<path d="M320.115 260.041H317.014V265.255H320.115V260.041Z" fill="#D3D875"/>
<path d="M324.192 260.041H321.091V265.255H324.192V260.041Z" fill="#D3D875"/>
<path d="M328.269 260.041H325.168V265.255H328.269V260.041Z" fill="#D3D875"/>
<path d="M332.346 260.041H329.245V265.255H332.346V260.041Z" fill="#D3D875"/>
<path d="M320.115 266.566H317.014V271.779H320.115V266.566Z" fill="#D3D875"/>
<path d="M324.192 266.566H321.091V271.779H324.192V266.566Z" fill="#D3D875"/>
<path d="M328.269 266.566H325.168V271.779H328.269V266.566Z" fill="#D3D875"/>
<path d="M332.346 266.566H329.245V271.779H332.346V266.566Z" fill="#D3D875"/>
<path d="M320.115 273.093H317.014V278.306H320.115V273.093Z" fill="#D3D875"/>
<path d="M324.192 273.093H321.091V278.306H324.192V273.093Z" fill="#D3D875"/>
<path d="M328.269 273.093H325.168V278.306H328.269V273.093Z" fill="#D3D875"/>
<path d="M332.346 273.093H329.245V278.306H332.346V273.093Z" fill="#D3D875"/>
<path d="M320.115 279.617H317.014V284.831H320.115V279.617Z" fill="#D3D875"/>
<path d="M324.192 279.617H321.091V284.831H324.192V279.617Z" fill="#D3D875"/>
<path d="M328.269 279.617H325.168V284.831H328.269V279.617Z" fill="#D3D875"/>
<path d="M332.346 279.617H329.245V284.831H332.346V279.617Z" fill="#D3D875"/>
<path d="M320.115 286.142H317.014V291.355H320.115V286.142Z" fill="#D3D875"/>
<path d="M324.192 286.142H321.091V291.355H324.192V286.142Z" fill="#D3D875"/>
<path d="M328.269 286.142H325.168V291.355H328.269V286.142Z" fill="#D3D875"/>
<path d="M332.346 286.142H329.245V291.355H332.346V286.142Z" fill="#D3D875"/>
<path d="M260.749 295.85H233.136V210.541H249.953C255.912 210.541 260.749 215.367 260.749 221.308V295.85Z" fill="#6C6C8C"/>
<path d="M240.297 224.249H236.309V231.889H240.297V224.249Z" fill="#C1C685"/>
<path d="M245.544 224.249H241.553V231.889H245.544V224.249Z" fill="#C1C685"/>
<path d="M250.789 224.249H246.8V231.889H250.789V224.249Z" fill="#C1C685"/>
<path d="M256.033 224.249H252.044V231.889H256.033V224.249Z" fill="#C1C685"/>
<path d="M240.297 233.813H236.309V241.453H240.297V233.813Z" fill="#C1C685"/>
<path d="M245.544 233.813H241.553V241.453H245.544V233.813Z" fill="#C1C685"/>
<path d="M250.789 233.813H246.8V241.453H250.789V233.813Z" fill="#C1C685"/>
<path d="M256.033 233.813H252.044V241.453H256.033V233.813Z" fill="#C1C685"/>
<path d="M240.297 243.375H236.309V251.014H240.297V243.375Z" fill="#C1C685"/>
<path d="M245.544 243.375H241.553V251.014H245.544V243.375Z" fill="#C1C685"/>
<path d="M250.789 243.375H246.8V251.014H250.789V243.375Z" fill="#C1C685"/>
<path d="M256.033 243.375H252.044V251.014H256.033V243.375Z" fill="#C1C685"/>
<path d="M240.297 252.938H236.309V260.578H240.297V252.938Z" fill="#C1C685"/>
<path d="M245.544 252.938H241.553V260.578H245.544V252.938Z" fill="#C1C685"/>
<path d="M250.789 252.938H246.8V260.578H250.789V252.938Z" fill="#C1C685"/>
<path d="M256.033 252.938H252.044V260.578H256.033V252.938Z" fill="#C1C685"/>
<path d="M240.297 262.5H236.309V270.139H240.297V262.5Z" fill="#C1C685"/>
<path d="M245.544 262.5H241.553V270.139H245.544V262.5Z" fill="#C1C685"/>
<path d="M250.789 262.5H246.8V270.139H250.789V262.5Z" fill="#C1C685"/>
<path d="M256.033 262.5H252.044V270.139H256.033V262.5Z" fill="#C1C685"/>
<path d="M240.297 272.064H236.309V279.703H240.297V272.064Z" fill="#C1C685"/>
<path d="M245.544 272.064H241.553V279.703H245.544V272.064Z" fill="#C1C685"/>
<path d="M250.789 272.064H246.8V279.703H250.789V272.064Z" fill="#C1C685"/>
<path d="M256.033 272.064H252.044V279.703H256.033V272.064Z" fill="#C1C685"/>
<path d="M240.297 281.627H236.309V289.267H240.297V281.627Z" fill="#C1C685"/>
<path d="M245.544 281.627H241.553V289.267H245.544V281.627Z" fill="#C1C685"/>
<path d="M250.789 281.627H246.8V289.267H250.789V281.627Z" fill="#C1C685"/>
<path d="M256.033 281.627H252.044V289.267H256.033V281.627Z" fill="#C1C685"/>
<path d="M261.739 238.465V198.803H289.435V238.465L294.616 240.916V295.855H256.559V240.916L261.739 238.465Z" fill="#8282A8"/>
<path d="M265.927 238.465V198.803H293.625V238.465L298.803 240.916V295.855H260.749V240.916L265.927 238.465Z" fill="#B1B1DE"/>
<path d="M279.522 191.739V178.847C279.522 178.707 279.635 178.595 279.775 178.595C279.915 178.595 280.028 178.707 280.028 178.847V191.739C285.073 191.869 289.121 195.857 289.121 200.761C289.121 205.666 284.936 209.791 279.775 209.791C274.614 209.791 270.429 205.749 270.429 200.761C270.429 195.774 274.476 191.869 279.522 191.739Z" fill="#B1B1DE"/>
<path d="M291.062 201.482H287.892V208.747H291.062V201.482Z" fill="#D3D875"/>
<path d="M285.904 201.482H282.734V208.747H285.904V201.482Z" fill="#D3D875"/>
<path d="M280.746 201.482H277.575V208.747H280.746V201.482Z" fill="#D3D875"/>
<path d="M275.587 201.482H272.417V208.747H275.587V201.482Z" fill="#D3D875"/>
<path d="M270.429 201.482H267.259V208.747H270.429V201.482Z" fill="#D3D875"/>
<path d="M291.062 210.193H287.892V217.458H291.062V210.193Z" fill="#D3D875"/>
<path d="M285.904 210.193H282.734V217.458H285.904V210.193Z" fill="#D3D875"/>
<path d="M280.746 210.193H277.575V217.458H280.746V210.193Z" fill="#D3D875"/>
<path d="M275.587 210.193H272.417V217.458H275.587V210.193Z" fill="#D3D875"/>
<path d="M270.429 210.193H267.259V217.458H270.429V210.193Z" fill="#D3D875"/>
<path d="M291.062 218.901H287.892V226.166H291.062V218.901Z" fill="#D3D875"/>
<path d="M285.904 218.901H282.734V226.166H285.904V218.901Z" fill="#D3D875"/>
<path d="M280.746 218.901H277.575V226.166H280.746V218.901Z" fill="#D3D875"/>
<path d="M275.587 218.901H272.417V226.166H275.587V218.901Z" fill="#D3D875"/>
<path d="M270.429 218.901H267.259V226.166H270.429V218.901Z" fill="#D3D875"/>
<path d="M291.062 227.612H287.892V234.877H291.062V227.612Z" fill="#D3D875"/>
<path d="M285.904 227.612H282.734V234.877H285.904V227.612Z" fill="#D3D875"/>
<path d="M280.746 227.612H277.575V234.877H280.746V227.612Z" fill="#D3D875"/>
<path d="M275.587 227.612H272.417V234.877H275.587V227.612Z" fill="#D3D875"/>
<path d="M270.429 227.612H267.259V234.877H270.429V227.612Z" fill="#D3D875"/>
<path d="M291.062 236.323H287.892V243.588H291.062V236.323Z" fill="#D3D875"/>
<path d="M285.904 236.323H282.734V243.588H285.904V236.323Z" fill="#D3D875"/>
<path d="M280.746 236.323H277.575V243.588H280.746V236.323Z" fill="#D3D875"/>
<path d="M275.587 236.323H272.417V243.588H275.587V236.323Z" fill="#D3D875"/>
<path d="M270.429 236.323H267.259V243.588H270.429V236.323Z" fill="#D3D875"/>
<path d="M291.062 245.034H287.892V252.299H291.062V245.034Z" fill="#D3D875"/>
<path d="M285.904 245.034H282.734V252.299H285.904V245.034Z" fill="#D3D875"/>
<path d="M280.746 245.034H277.575V252.299H280.746V245.034Z" fill="#D3D875"/>
<path d="M275.587 245.034H272.417V252.299H275.587V245.034Z" fill="#D3D875"/>
<path d="M270.429 245.034H267.259V252.299H270.429V245.034Z" fill="#D3D875"/>
<path d="M291.062 253.745H287.892V261.01H291.062V253.745Z" fill="#D3D875"/>
<path d="M285.904 253.745H282.734V261.01H285.904V253.745Z" fill="#D3D875"/>
<path d="M280.746 253.745H277.575V261.01H280.746V253.745Z" fill="#D3D875"/>
<path d="M275.587 253.745H272.417V261.01H275.587V253.745Z" fill="#D3D875"/>
<path d="M270.429 253.745H267.259V261.01H270.429V253.745Z" fill="#D3D875"/>
<path d="M291.062 262.456H287.892V269.72H291.062V262.456Z" fill="#D3D875"/>
<path d="M285.904 262.456H282.734V269.72H285.904V262.456Z" fill="#D3D875"/>
<path d="M280.746 262.456H277.575V269.72H280.746V262.456Z" fill="#D3D875"/>
<path d="M275.587 262.456H272.417V269.72H275.587V262.456Z" fill="#D3D875"/>
<path d="M270.429 262.456H267.259V269.72H270.429V262.456Z" fill="#D3D875"/>
<path d="M291.062 271.166H287.892V278.431H291.062V271.166Z" fill="#D3D875"/>
<path d="M285.904 271.166H282.734V278.431H285.904V271.166Z" fill="#D3D875"/>
<path d="M280.746 271.166H277.575V278.431H280.746V271.166Z" fill="#D3D875"/>
<path d="M275.587 271.166H272.417V278.431H275.587V271.166Z" fill="#D3D875"/>
<path d="M270.429 271.166H267.259V278.431H270.429V271.166Z" fill="#D3D875"/>
<path d="M291.062 279.877H287.892V287.142H291.062V279.877Z" fill="#D3D875"/>
<path d="M285.904 279.877H282.734V287.142H285.904V279.877Z" fill="#D3D875"/>
<path d="M280.746 279.877H277.575V287.142H280.746V279.877Z" fill="#D3D875"/>
<path d="M275.587 279.877H272.417V287.142H275.587V279.877Z" fill="#D3D875"/>
<path d="M270.429 279.877H267.259V287.142H270.429V279.877Z" fill="#D3D875"/>
<path d="M291.062 288.586H287.892V295.85H291.062V288.586Z" fill="#D3D875"/>
<path d="M285.904 288.586H282.734V295.85H285.904V288.586Z" fill="#D3D875"/>
<path d="M280.746 288.586H277.575V295.85H280.746V288.586Z" fill="#D3D875"/>
<path d="M275.587 288.586H272.417V295.85H275.587V288.586Z" fill="#D3D875"/>
<path d="M270.429 288.586H267.259V295.851H270.429V288.586Z" fill="#D3D875"/>
<path d="M221.827 200.803H222.746V175.484H221.827V200.803Z" fill="#B1B1DE"/>
<path d="M212.859 209.688H231.711V191.921H212.859V209.688Z" fill="#B1B1DE"/>
<path d="M208.261 296.745H236.309V199.325H208.261V296.745Z" fill="#B1B1DE"/>
<path d="M233.775 201.359H230.096V204.913H233.775V201.359Z" fill="#D3D875"/>
<path d="M227.649 201.359H223.97V204.913H227.649V201.359Z" fill="#D3D875"/>
<path d="M221.519 201.359H217.841V204.913H221.519V201.359Z" fill="#D3D875"/>
<path d="M215.393 201.359H211.714V204.913H215.393V201.359Z" fill="#D3D875"/>
<path d="M233.775 208.798H230.096V212.352H233.775V208.798Z" fill="#D3D875"/>
<path d="M227.649 208.798H223.97V212.352H227.649V208.798Z" fill="#D3D875"/>
<path d="M221.519 208.798H217.841V212.352H221.519V208.798Z" fill="#D3D875"/>
<path d="M215.393 208.798H211.714V212.352H215.393V208.798Z" fill="#D3D875"/>
<path d="M233.775 216.237H230.096V219.791H233.775V216.237Z" fill="#D3D875"/>
<path d="M227.649 216.237H223.97V219.791H227.649V216.237Z" fill="#D3D875"/>
<path d="M221.519 216.237H217.841V219.791H221.519V216.237Z" fill="#D3D875"/>
<path d="M215.393 216.237H211.714V219.791H215.393V216.237Z" fill="#D3D875"/>
<path d="M233.775 223.678H230.096V227.232H233.775V223.678Z" fill="#D3D875"/>
<path d="M227.649 223.678H223.97V227.232H227.649V223.678Z" fill="#D3D875"/>
<path d="M221.519 223.678H217.841V227.232H221.519V223.678Z" fill="#D3D875"/>
<path d="M215.393 223.678H211.714V227.232H215.393V223.678Z" fill="#D3D875"/>
<path d="M233.775 231.117H230.096V234.671H233.775V231.117Z" fill="#D3D875"/>
<path d="M227.649 231.117H223.97V234.671H227.649V231.117Z" fill="#D3D875"/>
<path d="M221.519 231.117H217.841V234.671H221.519V231.117Z" fill="#D3D875"/>
<path d="M215.393 231.117H211.714V234.671H215.393V231.117Z" fill="#D3D875"/>
<path d="M233.775 238.556H230.096V242.11H233.775V238.556Z" fill="#D3D875"/>
<path d="M227.649 238.556H223.97V242.11H227.649V238.556Z" fill="#D3D875"/>
<path d="M221.519 238.556H217.841V242.11H221.519V238.556Z" fill="#D3D875"/>
<path d="M215.393 238.556H211.714V242.11H215.393V238.556Z" fill="#D3D875"/>
<path d="M233.775 245.995H230.096V249.549H233.775V245.995Z" fill="#D3D875"/>
<path d="M227.649 245.995H223.97V249.549H227.649V245.995Z" fill="#D3D875"/>
<path d="M221.519 245.995H217.841V249.549H221.519V245.995Z" fill="#D3D875"/>
<path d="M215.393 245.995H211.714V249.549H215.393V245.995Z" fill="#D3D875"/>
<path d="M233.775 253.436H230.096V256.99H233.775V253.436Z" fill="#D3D875"/>
<path d="M227.649 253.436H223.97V256.99H227.649V253.436Z" fill="#D3D875"/>
<path d="M221.519 253.436H217.841V256.99H221.519V253.436Z" fill="#D3D875"/>
<path d="M215.393 253.436H211.714V256.99H215.393V253.436Z" fill="#D3D875"/>
<path d="M233.775 260.875H230.096V264.429H233.775V260.875Z" fill="#D3D875"/>
<path d="M227.649 260.875H223.97V264.429H227.649V260.875Z" fill="#D3D875"/>
<path d="M221.519 260.875H217.841V264.429H221.519V260.875Z" fill="#D3D875"/>
<path d="M215.393 260.875H211.714V264.429H215.393V260.875Z" fill="#D3D875"/>
<path d="M233.775 268.313H230.096V271.867H233.775V268.313Z" fill="#D3D875"/>
<path d="M227.649 268.313H223.97V271.867H227.649V268.313Z" fill="#D3D875"/>
<path d="M221.519 268.313H217.841V271.867H221.519V268.313Z" fill="#D3D875"/>
<path d="M215.393 268.313H211.714V271.867H215.393V268.313Z" fill="#D3D875"/>
<path d="M233.775 275.755H230.096V279.309H233.775V275.755Z" fill="#D3D875"/>
<path d="M227.649 275.755H223.97V279.309H227.649V275.755Z" fill="#D3D875"/>
<path d="M221.519 275.755H217.841V279.309H221.519V275.755Z" fill="#D3D875"/>
<path d="M215.393 275.755H211.714V279.309H215.393V275.755Z" fill="#D3D875"/>
<path d="M233.775 283.194H230.096V286.747H233.775V283.194Z" fill="#D3D875"/>
<path d="M227.649 283.194H223.97V286.747H227.649V283.194Z" fill="#D3D875"/>
<path d="M221.519 283.194H217.841V286.747H221.519V283.194Z" fill="#D3D875"/>
<path d="M215.393 283.194H211.714V286.747H215.393V283.194Z" fill="#D3D875"/>
<path d="M233.775 290.632H230.096V294.186H233.775V290.632Z" fill="#D3D875"/>
<path d="M227.649 290.632H223.97V294.186H227.649V290.632Z" fill="#D3D875"/>
<path d="M221.519 290.632H217.841V294.186H221.519V290.632Z" fill="#D3D875"/>
<path d="M215.393 290.632H211.714V294.186H215.393V290.632Z" fill="#D3D875"/>
<path d="M86.2875 268.147C86.9191 265.62 88.5657 263.813 90.4924 263.813V264.36C88.3248 264.36 86.5628 267.081 86.5628 270.424V290.483H86.0148V270.424C86.0148 267.081 84.2527 264.36 82.0852 264.36V263.813C84.0119 263.813 85.6584 265.62 86.29 268.147H86.2875Z" fill="#333343"/>
<path d="M89.3742 263.84C89.2169 265.093 90.2737 266.147 91.5294 265.99C92.3847 265.882 93.0777 265.193 93.1834 264.338C93.3406 263.086 92.2864 262.032 91.0281 262.188C90.1704 262.296 89.4799 262.985 89.3718 263.84H89.3742Z" fill="#FCFF78"/>
<path d="M90.3522 262.409C90.2023 262.684 90.1138 262.997 90.1138 263.333C90.1138 264.392 90.974 265.25 92.0356 265.25C92.3723 265.25 92.6869 265.164 92.9621 265.012C92.6353 265.603 92.0037 266.005 91.2787 266.005C90.2171 266.005 89.3569 265.147 89.3569 264.088C89.3569 263.365 89.7575 262.735 90.3522 262.409Z" fill="#F9EA35"/>
<path d="M79.3671 263.84C79.2099 265.093 80.2666 266.147 81.5224 265.99C82.3776 265.882 83.0706 265.193 83.1787 264.338C83.336 263.086 82.2793 262.032 81.0235 262.188C80.1683 262.296 79.4753 262.985 79.3671 263.84Z" fill="#FCFF78"/>
<path d="M80.4656 265.201C81.5272 265.201 82.3874 264.343 82.3874 263.284C82.3874 262.96 82.3063 262.659 82.1662 262.392C82.7756 262.713 83.1934 263.35 83.1934 264.088C83.1934 265.147 82.3333 266.005 81.2716 266.005C80.5344 266.005 79.893 265.59 79.571 264.983C79.8389 265.122 80.1436 265.203 80.4656 265.203V265.201Z" fill="#F9EA35"/>
<path d="M85.565 294.564H86.9363V288.784H85.565V294.564Z" fill="#3E3D51"/>
<path d="M84.9507 294.564H87.6245C87.6245 294.245 87.3664 293.988 87.0494 293.988H85.5282C85.2087 293.988 84.9507 294.245 84.9507 294.564Z" fill="#3E3D51"/>
<path d="M274.754 218.793C276.563 211.543 281.291 206.357 286.823 206.357V207.928C280.603 207.928 275.543 215.737 275.543 225.333V282.909H273.97V225.333C273.97 215.735 268.91 207.928 262.69 207.928V206.357C268.222 206.357 272.948 211.541 274.757 218.793H274.754Z" fill="#333343"/>
<path d="M283.579 206.857C283.415 210.119 286.101 212.801 289.372 212.634C292.173 212.492 294.449 210.222 294.591 207.428C294.756 204.166 292.07 201.485 288.797 201.651C285.995 201.793 283.719 204.063 283.579 206.857Z" fill="#FCFF78"/>
<path d="M286.425 202.325C285.99 203.112 285.742 204.016 285.742 204.977C285.742 208.014 288.209 210.475 291.254 210.475C292.217 210.475 293.124 210.227 293.913 209.793C292.974 211.489 291.163 212.639 289.084 212.639C286.039 212.639 283.569 210.178 283.569 207.141C283.569 205.065 284.722 203.259 286.423 202.325H286.425Z" fill="#F9EA35"/>
<path d="M254.853 206.857C254.686 210.119 257.375 212.801 260.646 212.634C263.447 212.492 265.723 210.222 265.865 207.428C266.033 204.166 263.344 201.485 260.073 201.651C257.272 201.793 254.996 204.063 254.853 206.857Z" fill="#FCFF78"/>
<path d="M258.048 210.338C261.093 210.338 263.563 207.877 263.563 204.84C263.563 203.916 263.334 203.043 262.929 202.279C264.678 203.2 265.873 205.034 265.873 207.144C265.873 210.181 263.405 212.641 260.361 212.641C258.242 212.641 256.404 211.45 255.482 209.705C256.249 210.11 257.124 210.338 258.051 210.338H258.048Z" fill="#F9EA35"/>
<path d="M272.69 294.62H276.625V278.029H272.69V294.62Z" fill="#3E3D51"/>
<path d="M270.918 294.62H278.59C278.59 293.708 277.851 292.971 276.936 292.971H272.572C271.658 292.971 270.918 293.708 270.918 294.62Z" fill="#3E3D51"/>
<path d="M343.336 293.184H2.53296V300H343.336V293.184Z" fill="#3E3D51"/>
<path d="M175.289 130.099C175.289 130.099 172.642 129.687 172.074 131.224C171.507 132.763 171.917 133.825 171.917 133.825L173.532 132.006C173.532 132.006 176.377 132.236 176.64 131.589C176.903 130.942 175.289 130.099 175.289 130.099Z" fill="#FFAF95"/>
<path d="M142.464 130.168C142.464 130.168 147.607 148.805 152.355 150.143C157.103 151.484 171.748 135.739 171.748 135.739L175.348 139.562C175.348 139.562 162.665 155.884 151.21 159.055C139.756 162.224 135.686 146.474 135.686 146.474L142.464 130.168Z" fill="#FFAF95"/>
<g style="mix-blend-mode:multiply" opacity="0.37">
<path d="M142.336 130.295L135.686 146.474C135.686 146.474 137.706 154.298 142.911 157.808C144.378 157.327 145.187 156.369 145.72 155.06C148.885 147.288 142.336 130.295 142.336 130.295Z" fill="#FF7685"/>
</g>
<path d="M184.856 127.114C184.856 127.114 179.833 125.445 178.673 126.599C177.513 127.756 168.998 136.543 169.226 137.391C169.297 137.653 173.055 139.366 175.117 139.023C177.179 138.68 187.107 128.033 184.856 127.111V127.114Z" fill="#333343"/>
<path d="M182.47 127.114C182.47 127.114 180.818 126.565 179.189 126.315C180.882 125.793 184.858 127.114 184.858 127.114C187.109 128.035 177.181 138.682 175.119 139.026C174.537 139.121 173.819 139.055 173.089 138.903C175.739 137.663 184.61 127.991 182.47 127.114Z" fill="#3E3D51"/>
<path d="M181.32 133.231C181.32 133.231 181.315 134.053 180.489 136.109C179.661 138.165 176.228 140.092 175.195 140.092C174.163 140.092 170.108 137.116 170.686 136.538C171.266 135.959 173.94 134.423 173.94 133.874C173.94 133.325 178.562 132.709 181.317 133.231H181.32Z" fill="#FFAF95"/>
<path d="M214.545 294.816C193.364 294.816 176.132 277.63 176.132 256.505C176.132 235.379 193.364 218.193 214.545 218.193C235.727 218.193 252.959 235.379 252.959 256.505C252.959 277.63 235.727 294.816 214.545 294.816ZM214.545 222.98C196.011 222.98 180.931 238.019 180.931 256.505C180.931 274.99 196.011 290.027 214.545 290.027C233.08 290.027 248.157 274.988 248.157 256.505C248.157 238.022 233.077 222.98 214.545 222.98Z" fill="#333343"/>
<path d="M214.545 286.235C198.107 286.235 184.733 272.897 184.733 256.502C184.733 240.107 198.107 226.769 214.545 226.769C230.983 226.769 244.355 240.107 244.355 256.502C244.355 272.897 230.981 286.235 214.545 286.235ZM214.545 227.968C198.77 227.968 185.935 240.769 185.935 256.502C185.935 272.235 198.77 285.037 214.545 285.037C230.32 285.037 243.155 272.238 243.155 256.502C243.155 240.767 230.322 227.968 214.545 227.968Z" fill="#FBF3FF"/>
<path d="M214.545 282.5C200.174 282.5 188.478 270.838 188.478 256.505C188.478 252.318 189.447 248.321 191.354 244.625C191.506 244.33 191.867 244.215 192.162 244.367C192.457 244.519 192.572 244.879 192.42 245.174C190.602 248.698 189.678 252.509 189.678 256.505C189.678 270.179 200.832 281.304 214.543 281.304C218.148 281.304 221.625 280.551 224.879 279.066C225.181 278.929 225.535 279.061 225.675 279.36C225.813 279.662 225.68 280.017 225.378 280.154C221.969 281.711 218.322 282.5 214.543 282.5H214.545Z" fill="#FBF3FF"/>
<path d="M233.134 239.74C232.974 239.74 232.814 239.676 232.696 239.551C228.012 234.563 221.397 231.703 214.548 231.703C214.216 231.703 213.948 231.436 213.948 231.105C213.948 230.774 214.216 230.507 214.548 230.507C221.726 230.507 228.661 233.504 233.571 238.732C233.797 238.973 233.785 239.352 233.544 239.578C233.429 239.686 233.281 239.74 233.134 239.74Z" fill="#FBF3FF"/>
<path d="M172.959 258.299C171.964 258.299 171.158 257.495 171.158 256.502C171.158 232.642 190.621 213.23 214.545 213.23C224.8 213.23 234.751 216.865 242.566 223.463C243.325 224.105 243.418 225.237 242.777 225.994C242.136 226.752 240.998 226.845 240.238 226.205C233.075 220.156 223.95 216.823 214.548 216.823C192.609 216.823 174.763 234.622 174.763 256.502C174.763 257.495 173.957 258.299 172.962 258.299H172.959Z" fill="#8282A8"/>
<path d="M134.14 237.838L126.787 244.188C126.787 244.188 124.318 244.458 123.411 243.174C122.504 241.889 122.698 240.473 122.698 240.473L129.567 232.289L134.143 237.838H134.14Z" fill="#FFAF95"/>
<path d="M128.34 242.848C129.928 242.227 128.34 242.848 130.169 248.465C131.86 252.159 133.715 253.664 133.081 254.411C132.447 255.161 131.567 255.473 131.567 255.473L118.685 243.286C118.685 243.286 121.735 238.36 122.983 240.127C128.478 244.769 128.338 242.848 128.338 242.848H128.34Z" fill="#8282A8"/>
<path d="M123.344 178.783L134.949 181.144C134.949 181.144 166.284 197.024 165.292 207.178C164.299 217.333 134.619 240.041 134.619 240.041L127.918 232.857C127.918 232.857 144.624 213.284 143.924 210.85C143.223 208.413 103.81 192.352 102.51 188.46C101.21 184.568 107.97 177.783 107.97 177.783L123.349 178.783H123.344Z" fill="#333343"/>
<path d="M158.283 208.396C157.742 201.82 143.376 188.526 134.767 181.109L123.344 178.786L107.965 177.786C107.965 177.786 101.205 184.57 102.505 188.462C103.805 192.355 143.218 208.416 143.919 210.852C144.619 213.289 127.913 232.86 127.913 232.86L130.823 235.977C139.999 229.585 158.868 215.531 158.283 208.399V208.396Z" fill="#333343"/>
<path d="M94.1319 294.816C72.9506 294.816 55.7185 277.63 55.7185 256.505C55.7185 235.379 72.9506 218.193 94.1319 218.193C115.313 218.193 132.545 235.379 132.545 256.505C132.545 277.63 115.313 294.816 94.1319 294.816ZM94.1319 222.98C75.5973 222.98 60.5205 238.019 60.5205 256.505C60.5205 274.99 75.5973 290.027 94.1319 290.027C112.666 290.027 127.743 274.988 127.743 256.505C127.743 238.022 112.664 222.98 94.1319 222.98Z" fill="#333343"/>
<path d="M94.1319 286.235C77.6936 286.235 64.3223 272.897 64.3223 256.502C64.3223 240.107 77.6961 226.769 94.1319 226.769C110.568 226.769 123.944 240.107 123.944 256.502C123.944 272.897 110.57 286.235 94.1319 286.235ZM94.1319 227.968C78.3571 227.968 65.5215 240.769 65.5215 256.502C65.5215 272.235 78.3547 285.037 94.1319 285.037C109.909 285.037 122.742 272.238 122.742 256.502C122.742 240.767 109.909 227.968 94.1319 227.968Z" fill="#FBF3FF"/>
<path d="M94.132 282.5C79.7605 282.5 68.0676 270.838 68.0676 256.505C68.0676 252.318 69.0334 248.323 70.9405 244.625C71.0928 244.33 71.4541 244.215 71.749 244.367C72.0439 244.519 72.1594 244.879 72.007 245.174C70.1885 248.698 69.2644 252.512 69.2644 256.505C69.2644 270.179 80.4191 281.304 94.1296 281.304C97.7372 281.304 101.215 280.551 104.466 279.066C104.768 278.929 105.124 279.061 105.262 279.36C105.4 279.662 105.267 280.017 104.965 280.154C101.556 281.711 97.9092 282.5 94.1296 282.5H94.132Z" fill="#FBF3FF"/>
<path d="M112.72 239.74C112.561 239.74 112.401 239.676 112.283 239.551C107.599 234.563 100.983 231.703 94.1343 231.703C93.8025 231.703 93.5347 231.436 93.5347 231.105C93.5347 230.774 93.8025 230.507 94.1343 230.507C101.315 230.507 108.248 233.504 113.16 238.732C113.386 238.973 113.374 239.352 113.133 239.578C113.018 239.686 112.87 239.74 112.723 239.74H112.72Z" fill="#FBF3FF"/>
<path d="M120.988 226.632C120.577 226.632 120.164 226.492 119.825 226.205C112.659 220.156 103.537 216.823 94.1319 216.823C86.1991 216.823 78.5365 219.144 71.9799 223.539C71.1542 224.093 70.036 223.872 69.4806 223.048C68.9252 222.225 69.1464 221.11 69.9721 220.556C77.1259 215.764 85.4815 213.23 94.1319 213.23C104.387 213.23 114.338 216.865 122.152 223.463C122.912 224.105 123.005 225.237 122.364 225.994C122.007 226.414 121.501 226.629 120.99 226.629L120.988 226.632Z" fill="#8282A8"/>
<path d="M94.1319 252.546C93.869 252.546 93.6478 252.338 93.6355 252.073C93.6232 251.799 93.8346 251.568 94.1098 251.553L146.998 249.11C147.271 249.093 147.504 249.308 147.519 249.583C147.531 249.857 147.32 250.09 147.045 250.103L94.1565 252.546C94.1565 252.546 94.1418 252.546 94.1319 252.546Z" fill="#3E3D51"/>
<path d="M147.772 263.897C147.772 263.897 147.757 263.897 147.75 263.897L94.1123 261.453C93.837 261.441 93.6257 261.208 93.638 260.934C93.6502 260.659 93.8985 260.448 94.159 260.46L147.799 262.904C148.074 262.916 148.286 263.149 148.273 263.424C148.261 263.691 148.04 263.897 147.777 263.897H147.772Z" fill="#3E3D51"/>
<path d="M94.132 261.948C91.1215 261.948 88.6738 259.505 88.6738 256.502C88.6738 253.5 91.124 251.056 94.132 251.056C97.14 251.056 99.5926 253.5 99.5926 256.502C99.5926 259.505 97.1424 261.948 94.132 261.948Z" fill="#3E3D51"/>
<path d="M140.758 247.791C140.168 247.791 139.608 247.443 139.37 246.865C139.053 246.1 139.419 245.225 140.186 244.911C146.794 242.193 152.25 237.21 155.545 230.887L164.026 214.61C166.909 209.073 171.283 204.47 176.67 201.301L182.143 198.08C182.858 197.661 183.777 197.896 184.197 198.609C184.618 199.32 184.382 200.239 183.669 200.659L178.196 203.879C173.291 206.764 169.312 210.953 166.69 215.99L158.209 232.267C154.587 239.218 148.593 244.693 141.328 247.679C141.142 247.757 140.947 247.791 140.758 247.791Z" fill="#8282A8"/>
<path d="M145.017 255.686C144.491 255.686 143.98 255.409 143.705 254.919L110.6 195.874C110.194 195.154 110.452 194.242 111.177 193.837C111.9 193.433 112.814 193.693 113.219 194.413L146.324 253.458C146.73 254.179 146.472 255.09 145.747 255.495C145.516 255.625 145.263 255.686 145.017 255.686Z" fill="#8282A8"/>
<path d="M133.083 258H94.1344C93.3062 258 92.6328 257.331 92.6328 256.502C92.6328 255.674 93.3037 255.005 94.1344 255.005H133.083C144.449 255.005 154.769 248.754 160.01 238.696L168.491 222.418C171.376 216.882 175.748 212.279 181.135 209.11L186.608 205.889C187.323 205.47 188.242 205.705 188.663 206.416C189.083 207.129 188.847 208.046 188.132 208.465L182.659 211.686C177.756 214.57 173.777 218.759 171.153 223.796L162.672 240.073C156.912 251.13 145.575 257.997 133.083 257.997V258Z" fill="#8282A8"/>
<path d="M94.132 257.701C93.928 257.701 93.7191 257.649 93.5299 257.539C92.9573 257.208 92.7607 256.473 93.0949 255.902L119.678 210.247C120.01 209.676 120.747 209.482 121.319 209.813C121.892 210.144 122.089 210.879 121.754 211.45L95.1715 257.105C94.9503 257.487 94.5473 257.701 94.132 257.701Z" fill="#8282A8"/>
<path d="M147.02 264.392C142.658 264.392 139.112 260.853 139.112 256.502C139.112 252.152 142.66 248.612 147.02 248.612C151.38 248.612 154.931 252.152 154.931 256.502C154.931 260.853 151.382 264.392 147.02 264.392Z" fill="#3E3D51"/>
<path d="M89.6689 256.502C89.6689 258.96 91.6669 260.956 94.1343 260.956C96.6016 260.956 98.5971 258.963 98.5971 256.502C98.5971 254.041 96.5991 252.051 94.1343 252.051C91.6694 252.051 89.6689 254.044 89.6689 256.502Z" fill="#FBF3FF"/>
<path d="M140.107 256.502C140.107 260.311 143.203 263.399 147.022 263.399C150.841 263.399 153.938 260.311 153.938 256.502C153.938 252.693 150.841 249.605 147.022 249.605C143.203 249.605 140.107 252.693 140.107 256.502Z" fill="#FBF3FF"/>
<path d="M152.722 279.1C152.137 279.1 151.623 278.671 151.535 278.078C151.439 277.424 151.891 276.816 152.547 276.718L165.751 274.772C166.405 274.676 167.017 275.127 167.115 275.782C167.213 276.436 166.759 277.044 166.103 277.142L152.898 279.088C152.839 279.095 152.781 279.1 152.722 279.1Z" fill="#3E3D51"/>
<path d="M159.327 277.529C159.126 277.529 158.929 277.429 158.816 277.245L146.511 257.416C146.337 257.134 146.423 256.767 146.706 256.593C146.986 256.419 147.357 256.505 147.531 256.786L159.836 276.615C160.01 276.897 159.924 277.265 159.642 277.439C159.544 277.5 159.433 277.529 159.327 277.529Z" fill="#3E3D51"/>
<path d="M103.657 192.301H115.365C116.232 192.301 116.938 193.004 116.938 193.869V195.744C116.938 196.609 116.232 197.313 115.365 197.313H100.583C99.4304 197.313 98.6415 196.105 99.1576 195.075C99.9809 193.428 101.686 192.298 103.657 192.298V192.301Z" fill="#FF7685"/>
<path d="M153.174 258.299V272.215C153.174 272.215 151.974 274.387 150.397 274.387C148.819 274.387 147.285 273.899 147.285 273.899L145.747 255.495L153.174 258.301V258.299Z" fill="#FFAF95"/>
<path d="M152.967 270.176C153.373 268.524 152.967 270.176 158.624 271.916C162.625 272.664 164.928 272.017 165.176 272.963C165.427 273.912 165.176 274.809 165.176 274.809L147.77 278.301C147.77 278.301 145.486 272.978 147.654 272.978C154.624 271.169 152.967 270.176 152.967 270.176Z" fill="#8282A8"/>
<path d="M130.417 176.685C130.417 176.685 153.124 197.538 156.526 213.6C159.927 229.664 153.938 263.784 153.938 263.784C153.938 263.784 150.669 265.38 143.995 264.583C143.995 264.583 144.123 219.985 141.722 216.793C139.321 213.6 102.409 193.546 100.607 187.56C98.806 181.575 103.429 174.989 103.429 174.989L130.419 176.685H130.417Z" fill="#3E3D51"/>
<path d="M148.635 261.884C148.635 261.884 148.61 261.884 148.598 261.884C148.323 261.865 148.116 261.627 148.138 261.353L148.384 257.943C148.404 257.669 148.645 257.463 148.915 257.485C149.19 257.505 149.397 257.742 149.377 258.014L149.131 261.424C149.112 261.686 148.895 261.884 148.635 261.884ZM149.126 255.066C149.126 255.066 149.102 255.066 149.089 255.066C148.817 255.046 148.608 254.808 148.63 254.536L148.871 251.127C148.89 250.853 149.119 250.644 149.401 250.666C149.677 250.686 149.883 250.924 149.863 251.196L149.623 254.605C149.603 254.867 149.387 255.066 149.126 255.066ZM149.608 248.247C149.608 248.247 149.586 248.247 149.574 248.247C149.301 248.228 149.092 247.99 149.111 247.718L149.347 244.308C149.367 244.034 149.608 243.835 149.878 243.848C150.153 243.867 150.36 244.102 150.34 244.377L150.104 247.786C150.085 248.049 149.868 248.25 149.608 248.25V248.247ZM150.077 241.428C150.077 241.428 150.055 241.428 150.043 241.428C149.768 241.409 149.561 241.174 149.581 240.899C149.66 239.762 149.736 238.622 149.812 237.49C149.832 237.215 150.07 237.017 150.34 237.026C150.615 237.046 150.822 237.281 150.805 237.556C150.729 238.688 150.652 239.828 150.576 240.965C150.559 241.227 150.34 241.428 150.08 241.428H150.077ZM150.534 234.61C150.534 234.61 150.512 234.61 150.502 234.61C150.227 234.593 150.021 234.355 150.038 234.083C150.114 232.923 150.185 231.784 150.257 230.673C150.274 230.399 150.51 230.196 150.785 230.21C151.06 230.227 151.267 230.463 151.25 230.737C151.178 231.847 151.105 232.99 151.031 234.149C151.014 234.411 150.795 234.612 150.534 234.612V234.61ZM150.967 227.789C150.967 227.789 150.947 227.789 150.935 227.789C150.662 227.771 150.451 227.536 150.468 227.264C150.539 226.07 150.608 224.928 150.67 223.855C150.684 223.58 150.923 223.372 151.193 223.387C151.468 223.401 151.677 223.637 151.662 223.911C151.601 224.987 151.535 226.129 151.461 227.325C151.446 227.588 151.225 227.791 150.964 227.791L150.967 227.789ZM151.353 220.963C151.353 220.963 151.336 220.963 151.326 220.963C151.053 220.948 150.842 220.715 150.854 220.441C150.923 219.1 150.972 217.945 151.001 217.031C151.009 216.757 151.235 216.536 151.515 216.551C151.79 216.558 152.006 216.789 151.997 217.063C151.967 217.982 151.918 219.141 151.849 220.492C151.837 220.757 151.616 220.963 151.353 220.963ZM150.915 214.259C150.743 214.259 150.576 214.171 150.485 214.012C150.053 213.269 149.365 212.401 148.438 211.431C148.249 211.232 148.256 210.918 148.455 210.727C148.654 210.538 148.969 210.546 149.158 210.744C150.139 211.771 150.876 212.703 151.345 213.514C151.483 213.752 151.402 214.056 151.164 214.193C151.085 214.24 150.999 214.259 150.915 214.259ZM146.312 209.23C146.194 209.23 146.079 209.188 145.983 209.105C145.209 208.423 144.329 207.69 143.371 206.928C143.157 206.757 143.12 206.445 143.292 206.23C143.464 206.016 143.779 205.98 143.992 206.151C144.963 206.926 145.855 207.668 146.642 208.36C146.848 208.541 146.868 208.855 146.686 209.061C146.588 209.173 146.45 209.23 146.312 209.23ZM140.967 204.945C140.864 204.945 140.758 204.913 140.67 204.847C139.812 204.205 138.886 203.526 137.915 202.83C137.691 202.671 137.64 202.36 137.8 202.136C137.959 201.913 138.271 201.862 138.495 202.021C139.473 202.722 140.407 203.404 141.27 204.051C141.488 204.215 141.533 204.526 141.368 204.747C141.27 204.877 141.12 204.945 140.97 204.945H140.967ZM135.401 200.95C135.303 200.95 135.204 200.921 135.116 200.862C134.182 200.215 133.238 199.568 132.292 198.928C132.064 198.774 132.005 198.465 132.16 198.239C132.314 198.011 132.624 197.953 132.85 198.107C133.799 198.749 134.747 199.396 135.684 200.046C135.91 200.203 135.964 200.511 135.809 200.737C135.713 200.877 135.556 200.95 135.399 200.95H135.401ZM129.727 197.107C129.631 197.107 129.535 197.08 129.451 197.024C128.486 196.384 127.53 195.754 126.593 195.139C126.365 194.989 126.301 194.681 126.451 194.453C126.601 194.225 126.91 194.158 127.141 194.31C128.08 194.926 129.039 195.558 130.004 196.2C130.233 196.352 130.297 196.661 130.142 196.889C130.046 197.033 129.889 197.109 129.727 197.109V197.107ZM123.998 193.345C123.905 193.345 123.811 193.318 123.728 193.264L120.857 191.391C120.626 191.242 120.563 190.933 120.715 190.705C120.865 190.477 121.174 190.411 121.405 190.563L124.276 192.435C124.507 192.585 124.571 192.894 124.421 193.122C124.325 193.269 124.165 193.347 124.003 193.347L123.998 193.345ZM118.265 189.59C118.169 189.59 118.073 189.563 117.99 189.506C116.807 188.722 115.876 188.087 115.144 187.57C114.92 187.411 114.866 187.102 115.026 186.879C115.183 186.656 115.495 186.602 115.719 186.761C116.444 187.274 117.368 187.903 118.54 188.683C118.769 188.835 118.83 189.144 118.678 189.372C118.582 189.516 118.425 189.592 118.262 189.592L118.265 189.59ZM112.846 185.433C112.686 185.433 112.526 185.354 112.431 185.212C111.861 184.362 111.489 183.205 111.325 181.769C111.293 181.497 111.489 181.251 111.762 181.22C112.035 181.188 112.283 181.384 112.313 181.656C112.46 182.93 112.777 183.943 113.256 184.658C113.409 184.886 113.347 185.195 113.119 185.347C113.035 185.403 112.939 185.43 112.844 185.43L112.846 185.433ZM111.779 178.803C111.779 178.803 111.757 178.803 111.745 178.803C111.47 178.783 111.263 178.548 111.281 178.274C111.352 177.212 111.492 176.058 111.696 174.837C111.743 174.565 111.998 174.381 112.268 174.43C112.539 174.474 112.723 174.732 112.676 175.001C112.477 176.188 112.34 177.31 112.271 178.337C112.254 178.599 112.035 178.8 111.775 178.8L111.779 178.803Z" fill="#ECE1EF"/>
<path d="M130.417 176.685L103.426 174.989C103.426 174.989 102.016 176.999 101.057 179.805C105.058 183.796 110.445 183.011 117.304 181.676C122.973 180.573 130.827 179.396 132.258 178.445C131.103 177.318 130.415 176.685 130.415 176.685H130.417Z" fill="#333343"/>
<path d="M112.878 172.075C112.839 172.075 112.799 172.07 112.76 172.06C112.492 171.997 112.33 171.727 112.394 171.46C112.644 170.425 112.836 169.783 112.844 169.756C112.922 169.494 113.197 169.345 113.463 169.423C113.726 169.501 113.876 169.778 113.797 170.041C113.797 170.048 113.605 170.688 113.36 171.695C113.303 171.923 113.099 172.075 112.875 172.075H112.878Z" fill="#F7604B"/>
<path d="M148.433 264.122C148.15 264.103 147.919 264.309 147.9 264.581L147.883 264.806C148.232 264.801 148.566 264.791 148.883 264.774L148.893 264.652C148.912 264.377 148.706 264.139 148.433 264.12V264.122Z" fill="#F7604B"/>
<path d="M136.819 125.403C136.819 125.403 141.921 127.996 143.422 133.386C144.924 138.773 145.624 150.246 143.422 154.139C141.223 158.031 136.819 176.886 133.519 177.984C130.218 179.082 103.608 178.881 101.608 178.384C99.6073 177.884 113.812 146.558 118.712 136.58C123.615 126.602 136.819 125.405 136.819 125.405V125.403Z" fill="#FD7D96"/>
<g style="mix-blend-mode:multiply">
<path d="M134.799 171.805C132.499 168.413 135.14 152.675 135.939 143.994C136.74 135.315 132.437 131.92 132.437 131.92C130.587 130.075 123.932 130.229 122.435 134.185C121.541 136.553 115.878 158.509 120.432 171.928C120.442 171.957 120.452 171.987 120.462 172.016C121.894 176.149 126.028 178.739 130.4 178.408C131.894 178.296 132.995 178.156 133.516 177.982C134.497 177.656 135.575 175.761 136.664 173.158C135.767 172.724 135.113 172.271 134.799 171.803V171.805Z" fill="#B2DAFE"/>
</g>
<path d="M146.573 121.513C146.573 121.513 145.796 122.437 144.909 123.734C143.066 126.432 142.478 129.807 143.353 132.955C144.032 135.393 144.823 138.972 144.823 142.391C144.823 148.376 136.821 125.405 136.821 125.405L141.174 116.949L146.575 121.513H146.573Z" fill="#FFAF95"/>
<g style="mix-blend-mode:multiply" opacity="0.68">
<path d="M146.573 121.513L141.171 116.949L139.554 120.092C140.375 121.952 141.995 124.089 143.774 125.849C144.074 125.111 144.452 124.403 144.909 123.734C145.796 122.437 146.573 121.513 146.573 121.513Z" fill="#FF7685"/>
</g>
<path d="M133.607 102.467C133.607 102.467 133.221 98.7288 130.923 91.8415C128.626 84.9566 120.329 79.9762 114.072 83.9443C107.815 87.9125 104.249 83.9394 98.2531 79.1404C92.2568 74.3413 84.5009 76.4001 80.1044 81.5546C75.7079 86.7091 67.227 86.6012 68.876 97.741C70.525 108.881 83.5498 115.641 91.1533 110.023C98.7569 104.405 100.099 106.623 105.837 111.68C111.573 116.736 125.603 108.138 128.621 105.454C131.641 102.77 133.604 102.462 133.604 102.462L133.607 102.467Z" fill="#333343"/>
<path d="M214.548 258C214.017 258 213.503 257.72 213.23 257.223L172.822 183.879C172.436 183.178 172.232 182.384 172.232 181.582V176.825C172.232 175.891 171.6 175.435 171.33 175.281C171.057 175.126 170.339 174.823 169.536 175.303L162.5 179.514C161.79 179.94 160.868 179.71 160.441 179.001C160.015 178.293 160.246 177.374 160.957 176.948L167.993 172.737C169.489 171.84 171.288 171.818 172.807 172.675C174.326 173.533 175.232 175.085 175.232 176.825V181.582C175.232 181.881 175.309 182.176 175.454 182.438L215.862 255.782C216.261 256.507 215.995 257.416 215.27 257.813C215.042 257.938 214.793 257.997 214.55 257.997L214.548 258Z" fill="#8282A8"/>
<path d="M210.082 256.502C210.082 258.96 212.08 260.956 214.545 260.956C217.01 260.956 219.01 258.963 219.01 256.502C219.01 254.041 217.012 252.051 214.545 252.051C212.078 252.051 210.082 254.044 210.082 256.502Z" fill="#FBF3FF"/>
<path d="M168.479 173.345C166.604 171.474 161.627 173.445 159.376 174.193C158.16 174.597 137.979 171.874 135.676 168.482C133.376 165.09 135.841 149.332 136.816 140.67C137.75 132.379 135.683 129.455 133.002 128.462C130.188 127.42 124.809 126.908 123.312 130.864C122.418 133.231 116.756 155.188 121.309 168.607C127.048 185.516 160.286 177.786 160.925 177.786C161.674 177.786 162.426 179.482 163.176 179.482C163.925 179.482 167.253 178.161 167.626 177.786C168.002 177.411 170.352 175.217 168.476 173.347L168.479 173.345Z" fill="#FFAF95"/>
<path d="M152.911 102.797C152.911 102.797 155.55 104.251 156.105 111.175C156.661 118.099 155.272 125.231 152.426 125.854C149.581 126.477 142.567 122.322 140.276 118.93C137.986 115.538 141.665 104.457 145.415 102.795C149.165 101.133 152.913 102.795 152.913 102.795L152.911 102.797Z" fill="#FFAF95"/>
<path d="M133.263 97.3979C132.395 98.2631 130.764 102.246 130.764 106.815C130.764 111.383 136.873 119.832 138.47 120.526C140.068 121.219 146.573 116.949 148.261 106.815C148.659 104.425 153.405 103.207 153.405 103.207C153.405 103.207 153.955 98.7141 149.718 97.1209C145.484 95.5278 144.096 98.5744 140.692 97.6062C137.291 96.6356 134.895 95.7704 133.263 97.3979Z" fill="#333343"/>
<path d="M146.573 113.246C146.573 113.246 147.003 110.221 145.344 110.221C143.685 110.221 141.695 113.584 142.774 115.03C143.852 116.479 145.801 115.528 145.801 115.528L146.573 113.246Z" fill="#FFAF95"/>
<path d="M178.09 105.773C175.498 105.773 173.396 107.643 173.396 109.952C173.396 112.261 178.09 123.55 178.09 123.55C178.09 123.55 182.784 112.258 182.784 109.952C182.784 107.645 180.683 105.773 178.09 105.773ZM178.09 112.378C176.992 112.378 176.1 111.489 176.1 110.393C176.1 109.297 176.992 108.408 178.09 108.408C179.189 108.408 180.081 109.297 180.081 110.393C180.081 111.489 179.189 112.378 178.09 112.378Z" fill="#EE534F"/>
<path d="M246.761 89.8733C257.316 89.8733 265.873 81.3392 265.873 70.8119C265.873 60.2845 257.316 51.7504 246.761 51.7504C236.205 51.7504 227.649 60.2845 227.649 70.8119C227.649 81.3392 236.205 89.8733 246.761 89.8733Z" fill="#FCEDD9"/>
</g>
<defs>
<clipPath id="clip0_4_3">
<rect width="354.545" height="300" fill="white"/>
</clipPath>
</defs>
</svg>
